<?xml version="1.0" encoding="UTF-8"?>
<svg width="1200pt" height="1200pt" version="1.1" viewBox="0 0 1200 1200" xmlns="http://www.w3.org/2000/svg">
 <path d="m590.72 624.84-134.81-150.74c-31.547-35.438-85.734-38.438-121.18-6.8906-35.441 31.547-38.438 85.734-6.8906 121.18l205.22 229.4c31.547 35.438 85.734 38.438 121.18 6.8906l435.89-677.58s25.5-41.484-6.4688-62.438c0 0-26.578-16.219-53.766 15.141zm458.11-325.08-57.891 90.516c33.516 62.391 52.734 133.69 52.734 209.72 0 122.68-49.688 233.29-130.03 313.64-80.344 80.344-191.16 130.03-313.64 130.03-122.68 0-233.29-49.688-313.64-130.03-80.578-80.344-130.03-190.97-130.03-313.64s49.688-233.29 130.03-313.64c80.344-80.344 190.97-130.03 313.64-130.03 94.406 0 181.45 29.391 253.36 79.5l62.016-74.297c-88.781-63.75-197.86-101.53-315.37-101.53-149.06 0-284.26 60.469-381.89 158.11-97.633 97.645-158.11 232.82-158.11 381.89s60.469 284.26 158.11 381.89c97.645 97.633 232.82 158.11 381.89 158.11s284.26-60.469 381.89-158.11c97.633-97.645 158.11-232.82 158.11-381.89 0-111.05-33.469-214.26-91.172-300.24z" fill="#c362dd"/>
</svg>
