<?xml version="1.0" encoding="UTF-8"?>
<svg viewBox="0 0 1200 1200" xmlns="http://www.w3.org/2000/svg">
 <rect x="-120" y="-120" width="1440" height="1440" fill="#fff"/>
 <path d="m788.93 444.32h-211.6c-10.578 0-19.648 8.3125-19.648 19.648 0 11.336 9.0703 19.648 19.648 19.648h211.6c10.578 0 19.648-8.3125 19.648-19.648-0.003906-11.336-9.0703-19.648-19.652-19.648z"/>
 <path d="m485.13 419.39-43.832 46.855-15.867-17.383c-7.5586-7.5586-19.648-8.3125-27.207-0.75391-7.5586 7.5586-8.3125 19.648-0.75391 27.207l30.23 32.496c3.7773 3.7773 9.0703 6.0469 14.359 6.0469s10.578-2.2656 14.359-6.0469l57.434-61.969c7.5586-7.5586 6.8008-20.402-0.75391-27.207-8.3203-7.5586-20.41-6.8047-27.969 0.75391z"/>
 <path d="m788.93 580.35h-211.6c-10.578 0-19.648 8.3125-19.648 19.648s9.0703 19.648 19.648 19.648h211.6c10.578 0 19.648-8.3125 19.648-19.648-0.003906-11.336-9.0703-19.648-19.652-19.648z"/>
 <path d="m485.13 555.41-43.832 46.855-15.867-17.383c-7.5586-7.5586-19.648-8.3125-27.207-0.75391-7.5586 7.5586-8.3125 19.648-0.75391 27.207l30.23 32.496c3.7773 3.7773 9.0703 6.0469 14.359 6.0469s10.578-2.2656 14.359-6.0469l57.434-61.969c7.5586-7.5586 6.8008-20.402-0.75391-27.207-8.3203-7.5586-20.41-6.8047-27.969 0.75391z"/>
 <path d="m788.93 716.38h-211.6c-10.578 0-19.648 8.3125-19.648 19.648s9.0703 19.648 19.648 19.648h211.6c10.578 0 19.648-8.3125 19.648-19.648-0.003906-11.336-9.0703-19.648-19.652-19.648z"/>
 <path d="m485.13 692.2-43.832 46.098-15.867-17.383c-7.5586-7.5586-19.648-8.3125-27.207-0.75391-7.5586 7.5586-8.3125 19.648-0.75391 27.207l30.23 32.496c3.7773 3.7773 9.0703 6.0469 14.359 6.0469s10.578-2.2656 14.359-6.0469l57.434-61.969c7.5586-7.5586 6.8008-20.402-0.75391-27.207-8.3203-6.8008-20.41-6.8008-27.969 1.5117z"/>
 <path d="m600 241.04c-198 0-358.96 160.96-358.96 358.96 0 198 160.96 358.96 358.96 358.96 198 0 358.96-160.96 358.96-358.96 0-198-160.96-358.96-358.96-358.96zm0 679.39c-176.84 0-320.42-143.59-320.42-320.42 0-176.84 143.59-320.43 320.42-320.43s320.42 143.59 320.42 320.42c0.003906 176.84-143.58 320.43-320.42 320.43z"/>
</svg>
